<?xml version="1.0" encoding="UTF-8" standalone="no"?>
<!-- Created with Inkscape (http://www.inkscape.org/) -->

<svg
   width="20mm"
   height="20mm"
   viewBox="0 0 20 20"
   version="1.1"
   id="svg5"
   xmlns="http://www.w3.org/2000/svg"
   xmlns:svg="http://www.w3.org/2000/svg">
  <defs
     id="defs2" />
  <g
     id="layer1"
     transform="translate(-13.126973,-239.11336)">
    <path
       style="fill:#000000;stroke:#ff0000;stroke-width:8.15195;stroke-linecap:square;stroke-linejoin:miter;stroke-miterlimit:7;stroke-dasharray:none;paint-order:markers fill stroke;stop-color:#000000"
       id="path13871"
       d="m 33.377831,19.747635 c 0.297153,0 17.805855,-9.116614 18.046257,-8.941952 0.240402,0.174663 -3.019526,19.643617 -2.927701,19.926227 0.09183,0.282609 14.172727,14.117185 14.080902,14.399795 -0.09183,0.28261 -19.615275,3.198471 -19.855677,3.373134 -0.240402,0.174662 -9.046628,17.841515 -9.343781,17.841515 -0.297154,0 -9.103381,-17.666853 -9.343783,-17.841516 C 23.793646,48.330176 4.2701976,45.414315 4.1783722,45.131705 4.0865467,44.849096 18.167449,31.014519 18.259274,30.731909 c 0.09183,-0.28261 -3.168103,-19.751563 -2.927701,-19.926226 0.240402,-0.174662 17.749105,8.941952 18.046258,8.941952 z"
       transform="matrix(-0.29113855,0,0,-0.29113854,32.844545,260.34373)" />
  </g>
</svg>
